<?xml version="1.0" encoding="UTF-8" standalone="no"?>
<!-- Created with Inkscape (http://www.inkscape.org/) -->
<svg
   xmlns:dc="http://purl.org/dc/elements/1.1/"
   xmlns:cc="http://creativecommons.org/ns#"
   xmlns:rdf="http://www.w3.org/1999/02/22-rdf-syntax-ns#"
   xmlns:svg="http://www.w3.org/2000/svg"
   xmlns="http://www.w3.org/2000/svg"
   xmlns:sodipodi="http://sodipodi.sourceforge.net/DTD/sodipodi-0.dtd"
   xmlns:inkscape="http://www.inkscape.org/namespaces/inkscape"
   width="744.09448819"
   height="744.3622047"
   id="svg12385"
   sodipodi:version="0.32"
   inkscape:version="0.46+pre4"
   sodipodi:docname="bottles black.svg"
   inkscape:output_extension="org.inkscape.output.svg.inkscape">
  <defs
     id="defs12387">
    <inkscape:perspective
       sodipodi:type="inkscape:persp3d"
       inkscape:vp_x="0 : 526.18109 : 1"
       inkscape:vp_y="0 : 1000 : 0"
       inkscape:vp_z="744.09448 : 526.18109 : 1"
       inkscape:persp3d-origin="372.04724 : 350.78739 : 1"
       id="perspective12393" />
  </defs>
  <sodipodi:namedview
     id="base"
     pagecolor="#ffffff"
     bordercolor="#666666"
     borderopacity="1.0"
     gridtolerance="10000"
     guidetolerance="10"
     objecttolerance="10"
     inkscape:pageopacity="0.0"
     inkscape:pageshadow="2"
     inkscape:zoom="0.7"
     inkscape:cx="282.59269"
     inkscape:cy="520"
     inkscape:document-units="px"
     inkscape:current-layer="layer1"
     showgrid="false"
     inkscape:window-width="1280"
     inkscape:window-height="938"
     inkscape:window-x="-4"
     inkscape:window-y="-4" />
  <metadata
     id="metadata12390">
    <rdf:RDF>
      <cc:Work
         rdf:about="">
        <dc:format>image/svg+xml</dc:format>
        <dc:type
           rdf:resource="http://purl.org/dc/dcmitype/StillImage" />
        <dc:title>Other map symbols</dc:title>
        <dc:creator>
          <cc:Agent>
            <dc:title>Mohamed Ibrahim</dc:title>
          </cc:Agent>
        </dc:creator>
        <dc:rights>
          <cc:Agent>
            <dc:title>Public Domain</dc:title>
          </cc:Agent>
        </dc:rights>
        <dc:publisher>
          <cc:Agent>
            <dc:title>clker.com</dc:title>
          </cc:Agent>
        </dc:publisher>
        <dc:subject>
          <rdf:Bag>
            <rdf:li>other map symbols</rdf:li>
          </rdf:Bag>
        </dc:subject>
        <cc:license
           rdf:resource="http://creativecommons.org/licenses/publicdomain/" />
      </cc:Work>
      <cc:License
         rdf:about="http://creativecommons.org/licenses/publicdomain/">
        <cc:permits
           rdf:resource="http://creativecommons.org/ns#Reproduction" />
        <cc:permits
           rdf:resource="http://creativecommons.org/ns#Distribution" />
        <cc:permits
           rdf:resource="http://creativecommons.org/ns#DerivativeWorks" />
      </cc:License>
    </rdf:RDF>
  </metadata>
  <g
     inkscape:label="Layer 1"
     inkscape:groupmode="layer"
     id="layer1">
    <path
       d="M 136.62289,110.64153 C 105.23553,110.64153 79.649906,136.16915 79.649906,167.55674 L 79.649906,604.31095 C 79.649906,635.69831 105.23553,661.22592 136.62289,661.22592 L 573.37711,661.22592 C 604.76447,661.22592 630.23406,635.69831 630.23406,604.31095 L 630.23406,167.55674 C 630.23406,136.16915 604.76447,110.64153 573.37711,110.64153 L 136.62289,110.64153 z"
       style="fill:#ffffff;fill-opacity:1;fill-rule:nonzero;stroke:none"
       id="path2812" />
    <path
       d="M 545.35475,588.87835 C 545.35475,597.34887 538.10259,604.31095 529.16793,604.31095 L 410.29048,604.31095 C 401.23979,604.31095 394.10366,597.34887 394.10366,588.87835 L 394.10366,363.71322 C 394.10366,354.6045 395.55409,345.43777 398.62901,337.1413 L 448.17578,210.14143 C 444.17259,209.56126 441.09767,206.31229 441.09767,202.42513 C 441.09767,199.58228 442.83819,197.08754 445.33293,195.69512 C 442.83819,194.36073 441.09767,191.80797 441.09767,188.9071 C 441.09767,184.61382 444.75276,181.24882 449.27811,181.24882 L 490.06427,181.24882 C 494.58962,181.24882 498.24471,184.61382 498.24471,188.9071 C 498.24471,191.924 496.56221,194.41874 493.95143,195.69512 C 496.44617,197.02952 498.24471,199.46625 498.24471,202.42513 C 498.24471,206.31229 495.28582,209.56126 491.34065,210.08341 L 540.71337,337.1413 C 543.78829,345.43777 545.35475,354.6045 545.35475,363.71322 L 545.35475,588.87835 z M 319.55143,592.93956 C 319.55143,599.84362 313.51763,605.4713 306.3815,605.4713 L 177.46707,605.4713 C 170.27292,605.4713 164.41318,599.84362 164.41318,592.93956 L 164.41318,368.0065 C 164.41318,338.64975 185.70553,313.99239 214.59814,307.37842 L 214.59814,206.71841 L 269.30845,206.71841 L 269.30845,307.37842 C 298.02701,314.10843 319.55143,338.70776 319.55143,368.0065 L 319.55143,592.93956 z M 214.59814,162.27716 L 269.30845,162.27716 L 269.30845,183.97563 L 214.59814,183.97563 L 214.59814,162.27716 z M 573.37711,99.038075 L 136.62289,99.038075 C 98.795614,99.038075 68.104464,129.72923 68.104464,167.55674 L 68.104464,604.31095 C 68.104464,642.13823 98.795614,672.82938 136.62289,672.82938 L 573.37711,672.82938 C 611.20439,672.82938 641.89554,642.13823 641.89554,604.31095 L 641.89554,167.55674 C 641.89554,129.72923 611.20439,99.038075 573.37711,99.038075"
       style="fill:#231f20;fill-opacity:1;fill-rule:nonzero;stroke:none"
       id="path2814" />
  </g>
</svg>
